<?xml version="1.0" encoding="utf-8"?>
<!-- Generator: Adobe Illustrator 25.2.0, SVG Export Plug-In . SVG Version: 6.00 Build 0)  -->
<svg version="1.1" id="Calque_1" xmlns="http://www.w3.org/2000/svg" xmlns:xlink="http://www.w3.org/1999/xlink" x="0px" y="0px"
	 viewBox="0 0 200.5 88.2" style="enable-background:new 0 0 200.5 88.2;" xml:space="preserve">
<g id="Calque_2_1_">
	<g id="Calque_1-2">
		<path d="M162.1,58H182V29.7h10.3v27.5l8.2-1.5v3.7h-8.1v14.9h-10.3V59.6h-31.3v11.6c0,4-0.2,8,0.1,12c0.3,3.8-2.5,5.8-6.9,4.8
			c-1.4-0.3-2.3-1.8-2-3.2c0.2-0.7,0.7-1.4,1.3-1.7c2-0.8,4.1-1.5,6.2-2c0.2-3.8,0.2-7.6-0.1-11.4c-0.7-6.8,1.5-12.3,4.9-18.1
			c6.2-10.8,11.5-22.1,17-33.2c0.7-1.5,1.2-3.2,1.5-4.9c0.8-3.6,1.5-7.2-2.9-9.6c3.4,0,6.9-0.2,10.4,0.1c2.5,0.2,3.1,2.5,3.2,4.4
			c0.1,2.5-0.2,5-0.8,7.4c-3.4,13.8-10.3,25.9-17.7,37.7C164.1,54.9,163.2,56.3,162.1,58z"/>
		<path d="M57.2,35.5c7.8-0.6,7.9-0.4,9,7.6c0.8,6,1.7,12,2.8,18c0.4,1.6,1,3.2,1.9,4.7c0.3,0.6,1.5,1.2,1.9,1
			c0.7-0.4,1.2-1.2,1.2-2c-0.5-4.5-1.3-9-1.9-13.5c-0.4-3.2-1.2-6.4-0.8-9.6c0.3-2.3,1.5-4.4,3.2-5.9c3-2.3,6.6-0.5,7.4,3.5
			c1.2,6.5,2,13,2.9,19.5c0.5,3.6,0.9,7.3,1.4,11.1h-5.3c-0.9-6.5-1.8-13-2.7-19.5c-0.5-3.4-0.7-6.8-1.4-10.1
			c-0.2-1.1-1.5-2-2.3-2.9c-0.8,1.1-2.2,2.3-2.2,3.3c0.4,5.9,1.2,11.8,1.9,17.7c0.2,1.9,1,3.8,0.8,5.5s-0.9,4.1-2.2,5
			c-1.9,1.3-4.5,0.7-5.8-1.2c0,0,0,0,0-0.1c-1.7-2.5-2.9-5.4-3.7-8.3c-1.2-5.7-1.7-11.4-2.5-17.2c-0.2-1.6-0.7-3.1-1-4.7l-1,0.1
			c-0.5,6.7-1.3,13.3-1.5,20c-0.1,5.6,1.6,8.9,5.3,12.3H52.5c1.1-5.9,2.3-11.8,3.2-17.6C56.6,46.8,58.5,41.3,57.2,35.5z"/>
		<path d="M47.2,52.5c-1.5-0.8-3-1.5-4.5-2.1c-3.5-1.1-7.1-1.9-10.5-3c-2.5-0.8-4.4-2.4-4.4-5.4s1.7-4.7,4.2-5.6
			c6.5-2.5,12.8-1.7,19.4,0.7L50,41.6c-4.7-0.5-9.1-1.1-13.6-1.4c-2-0.1-4.3,0.3-4.7,2.8c-0.5,2.6,1.6,3.7,3.6,4.4
			c3.3,1.1,6.7,1.8,10,2.9s4.7,2.9,4.1,5.3s-2.8,3.6-6,3.1c-2.3-0.4-4.6-1.4-6.9-2c-1.7-0.5-3.5-0.8-5.2-0.9c-1.1,0-3,0.8-3.2,1.5
			c-0.3,1.5,0,3.1,0.8,4.4c0.8,1,1.9,1.8,3.1,2.1c6,1.9,12.1,2.6,18.1,0c-0.3,5.1-1.5,6.7-6.5,6.6c-3.8-0.1-7.5-0.9-11-2.2
			c-3.9-1.4-5.6-5-6-9c-0.4-3.6,2.1-6.9,5.8-7.4c0.4,0,0.7-0.1,1.1,0c2.9-0.1,5.8,1,8.7,1.4c1.5,0.3,3.1,0.4,4.6,0.6L47.2,52.5z"/>
		<path d="M136.2,42.5c-5.2-2.2-10.5-3.1-15.9-1.8c-1,0.1-1.9,0.4-2.8,1c-1.1,1.1-2.6,2.7-2.4,3.9s2.1,2.6,3.5,2.9
			c3.4,0.8,7,0.7,10.4,1.3c5.8,1.1,8.9,4.5,9.2,9.1c0.2,4.9-3,9-8.4,10.7c-3.8,1.1-7.8,1-11.5-0.4c-5.2-1.8-5.5-2.5-2.7-7.6
			c4.3,2.8,9.1,4.4,14.3,3.7c1.5-0.2,3.2-0.3,4.3-1.1c1.3-1,2.8-2.6,2.9-4c0-1.1-1.8-2.8-3.2-3.2c-3.2-1-6.8-1-9.9-2.1
			c-2.9-1-6.2-2.3-8.2-4.5c-3.9-4.3-2-11.2,3.5-13.8c6-2.8,12-2.1,18.3,0.4C137.1,39.1,136.7,40.7,136.2,42.5z"/>
		<path d="M94.4,70.1h-5.2V35.8c5.1,0,10.2-0.5,15.3,0.2c4.1,0.5,6.8,5.1,6.7,9.8c0.1,4.6-2.9,8.6-7.3,9.8c-3.2,0.6-6.3,1-9.5,1.2
			V70.1z M94.4,55c4.6,0.8,8.4,0.1,10.6-4.1c2.1-3.7,1.7-8.3-1-11.6c-2.4-3.2-5.8-3.8-9.6-3.1L94.4,55z"/>
		<path d="M105.2,4.8v26.3h-3.7V4.3c4.6,0,9.2-0.2,13.7,0.1c1.2,0.1,2.8,1.6,3.4,2.8c1,2.1,0.4,4.6-1.4,6c-1.5,1.2-3.3,2.3-5.1,3
			c-1.7,0.7-1.9,1.5-1,2.9c2.6,4,5.3,8,7.8,11.8c-3.4,1-4.5,0.7-6.6-2.4c-1.5-2.2-2.8-4.6-4.2-6.9s-0.7-3.7,1.3-4.9
			c0.8-0.5,1.6-0.8,2.3-1.3c2.4-1.4,3.7-4.2,3.3-6.9c-0.3-2.3-1.5-3.7-3.9-3.7C109.2,4.8,107.3,4.8,105.2,4.8z"/>
		<path d="M0,35.4h21.6c0.9,0,1.8,0.1,2.7,0.1v4.7l-9.6-4.3V70h-5V36L0,40.2V35.4z"/>
		<path d="M98.4,9.2c-4.4-0.3-8-0.8-11.5-0.7c-1,0-1.9,1.3-2.9,2c0.8,1,1.4,2.3,2.4,2.8c2.5,1.1,5.3,1.6,7.8,2.5
			c1.9,0.7,3.9,1.7,3.2,4.3s-2.9,2.6-4.9,2.2c-2.3-0.5-4.6-1.4-6.9-2c-1.7-0.4-3.6-0.7-4.3,1.4s0.4,3.6,2.5,4.4
			c4.5,1.7,9.5,1.8,14.1,0.4c-0.1,3.9-0.9,4.8-4.8,4.9c-6.4,0.3-10.7-1.8-12.5-6.2s0.5-8,5.1-8c1.9,0.1,3.7,0.4,5.6,0.9
			c1.3,0.2,2.6,0.5,3.9,0.8l0.4-1.1c-1.6-0.6-3.1-1.3-4.7-1.9c-2.4-0.8-5-1.2-7.3-2.4c-1.4-0.8-2.4-2.2-2.7-3.8c0.1-1.6,1-3,2.4-3.8
			c4.6-2.4,9.5-1.9,14.2-0.2C98.2,5.8,98.1,8.1,98.4,9.2z"/>
		<path d="M160.7,5.9l-0.9,3.3c-3.7-0.3-7.2-0.8-10.8-0.8c-1.4,0.2-2.5,1.1-3.1,2.3c-0.4,2,1.4,2.2,3.1,2.6c2.9,0.7,5.7,1.7,8.4,3.1
			c1,0.5,2,2.4,1.7,3.2c-0.6,1.3-1.7,2.2-3.1,2.5c-1.5,0.3-3.1-0.4-4.6-0.8s-2.9-1.2-4.3-1.3s-3.6,0.4-4.1,1.3
			c-1,1.9,0.3,3.6,2.3,4.4c4.1,1.6,8.6,1.9,12.9,0.8c0.5-0.1,0.9-0.3,1.4-0.5c-0.3,4.2-1.1,5-5.1,5.1c-6.7,0.2-10.8-2-12.4-6.8
			c-1.4-3.9,0.8-7.3,5-7.5c2.1-0.1,4.3,0.7,6.4,1c1.1,0.2,2.3,0.3,3.5,0.5l0.3-1.3l-6.7-2.1c-1.8-0.6-3.8-0.8-5.3-1.8
			c-1.2-0.8-2.7-2.5-2.7-3.8c0.2-1.6,1.1-3.1,2.6-3.9C150.4,3.3,155.5,4,160.7,5.9z"/>
		<path d="M39.9,31.1h-4.1c-0.9-2.9-1.9-6-2.9-9.3h-8.5V31h-5.7c1.3-4.5,2.6-8.8,3.9-13.2c1-3.5,1.9-7.1,3.3-10.4
			c0.7-1.4,2-2.5,3.5-2.9c1-0.1,2.7,1.7,3.1,2.9C35.2,15.2,37.5,23,39.9,31.1z M28.4,7l-1.3,0.1c-2.6,4.2-2.5,9-2.9,13.8h8.5
			C31.2,16.1,29.8,11.5,28.4,7z"/>
		<path d="M139.6,7.2l-2.3,2.8c-1.4-1-2.7-2.2-4.2-2.7c-6-2-8.9,0-9.7,7.1c-0.1,2,0.2,4,0.9,5.9c2.2,6.9,8.2,8.8,14.2,4.6l1.9,3
			c-3.9,4.3-10.6,4.7-15,0.7c-0.7-0.6-1.3-1.3-1.8-2.1c-3.6-5.5-3.1-14.1,1-19.1C127.8,3.5,135.8,3.3,139.6,7.2z"/>
		<path d="M52,8.1V4.5h18.7v3.7l-7.2-3.8V31h-4V4.3C56.6,5.8,54.4,6.9,52,8.1z"/>
		<path d="M5,31.4c4.5-1.4,8.2-2.5,12-3.6v3.4H1.5V4.5H5V31.4z"/>
		<path d="M73.6,4.4h3.6v26.7h-3.6V4.4z"/>
		<path d="M190.6,8.4c-1.1-0.8-2.1-1.2-2.6-1.9c-0.8-1.3-1.9-3-1.7-4.2c0.2-1,2.4-2.4,3.5-2.2s2.5,1.8,2.9,3.1
			C193.4,5.2,192.5,7.4,190.6,8.4z"/>
	</g>
</g>
</svg>
