<svg xmlns="http://www.w3.org/2000/svg" viewBox="0 0 943.59 428.97"><defs><style>.cls-1{opacity:0.86;}.cls-2{fill:#fff;}</style></defs><g id="Calque_2" data-name="Calque 2"><g id="Calque_1-2" data-name="Calque 1"><g class="cls-1"><path class="cls-2" d="M903.72,279.74V147.25h-49.3V284.11H760.18c.21-1.67,0-2.71.46-3.38,3.85-6.11,7.89-12.1,11.7-18.23C808,205.13,841.56,146.75,857.73,80.33a139.29,139.29,0,0,0,3.81-35.7c-.21-9.54-3.39-20.56-15.26-21.48-16.54-1.29-33.27-.32-49.92-.32,20.87,12.1,17.65,29.9,13.56,47.73-1.72,7.49-3.41,15.22-6.74,22-23.39,47.93-43.86,97.73-71.9,142.81C719.87,253.75,711,272,705.48,291h0v.09c-.05.19-.11.37-.17.55h.17V405.89c-4-4.72-11.7-7.92-20.5-7.92-13,0-23.5,6.94-23.5,15.5S672,429,685,429c12.72,0,23.08-6.67,23.48-15h0V291.61H855.2v70.57h49.24V290.46h39.15v-18Z"/><path class="cls-2" d="M427,341.51l-25,.16L383.44,207.33c-.56-4-1.16-8.15-3.16-11.68s-5.76-6.37-9.8-6.06-7.11,3.44-8.61,7-1.58,7.63-1.54,11.53c.35,38.75,10.53,76.78,12.83,115.46.19,3.14.24,6.58-1.7,9.06-1.46,1.87-3.77,2.81-6,3.68-7.67,3-16.67,6-23.77,1.78-3.36-2-5.7-5.29-7.76-8.61-13.25-21.34-18.86-46.5-22.45-71.37s-5.42-50.1-12.05-74.33c-7.53,28.18-12.23,57.24-12.09,86.41.06,13,1.1,26.19,4.82,38.69s10.27,24.38,20.05,33l-47.35-.1,30-156c.57-2.94.84-6.64-1.68-8.27-2.34-1.52-6-.32-7.83-2.43,6.42.32,12.8-1.17,19.23-1.3S318,175.27,322,180.29c2.3,2.88,3.35,6.54,4.26,10.11,10.36,40.75,10,83.85,22.66,124,1.09,3.44,2.34,7,4.82,9.6s6.52,4.1,9.8,2.58c4.37-2,5.16-7.84,5.08-12.66-.6-35.27-15.2-69.52-13.3-104.75.48-8.77,2.11-17.8,7.14-25,10-14.37,32-13.62,40.46,1.91,3.57,6.54,4.66,14.11,5.68,21.5q9.25,67,18.52,134Z"/><path class="cls-2" d="M576.27,301.83l.07-.1a100.08,100.08,0,0,0,81.14,16.07c5.83-1.41,11.68-3.44,16.28-7.28s7.79-9.82,7-15.76c-.73-5.32-4.51-9.84-9.07-12.66s-9.87-4.17-15.12-5.28c-17.89-3.8-36.31-5.28-53.77-10.73-9.19-2.86-18.36-7-24.56-14.42-5.09-6-7.78-13.82-8.83-21.65-1.62-12.14.71-25.09,8-34.93,6-8,14.83-13.55,24.27-16.82,14.09-4.89,29.85-6,44.61-4.32a119.58,119.58,0,0,1,18.37,3.52c3,.82,6,1.77,8.92,2.83.76.27,8.77,3.19,8.68,3.53l-7.06,25.49C653,200,628.48,195.55,604.69,199c-6,.85-11.94,2.22-17.29,5s-10,7.14-12.35,12.71a14.55,14.55,0,0,0-1.15,7.88,14.1,14.1,0,0,0,4.13,7.57c5.19,5.18,12.85,6.85,20.11,7.81,14.09,1.87,28.42,1.93,42.32,4.83s27.83,9.14,36.19,20.63c10.9,15,9.78,36.83-.56,52.22s-28.53,24.46-47,26.32-37.09-2.89-53.9-10.71c-3-1.4-6.23-3.2-7.26-6.34a11.45,11.45,0,0,1,.16-6A57.25,57.25,0,0,1,576.27,301.83Z"/><path class="cls-2" d="M449,175.29c22.75,0,44.4-.89,65.95.24,22,1.15,38.82,21.37,40.16,45.69,1.4,25.58-14,47.26-38.55,51.85-13.55,2.54-27.6,2.4-43,3.59v65.21H449Zm24.89,95.23c21.81,4.21,38.91-2.12,48.95-17.42,10.86-16.57,10.64-40.7-.52-57.15-10.39-15.29-26.63-20.89-48.43-16.37Z"/><path class="cls-2" d="M339.69,25.41V43.47A50.39,50.39,0,0,0,304.45,26c0,44.87-.07,85.43-.07,128.09l-18.28.81c0-42.35.35-82.89.35-128.9a52.71,52.71,0,0,0-36.24,17V25.41Z"/><path class="cls-2" d="M5.64,154.17V25.51H23.12c1.65,63.76-.5,95.84-.23,111.91.17,10,.26,14.46,5.79,14.46,14.46,0,11.56,0,28.92-5.78a88.78,88.78,0,0,0,23.13-11.57c0,4.41.33,13.45.33,19.64Z"/><rect class="cls-2" x="353.64" y="25.24" width="17.36" height="128.95"/><path class="cls-2" d="M423.71,133.38A94.43,94.43,0,0,1,409.49,131c-5.53-1.4-11.1-3.51-15.11-7.57s-6.08-10.47-3.73-15.67c1.81-4,5.92-6.64,10.22-7.55s8.78-.28,13,.8c10.16,2.58,19.95,7.79,30.41,7.21a28.16,28.16,0,0,0,18.59-8.51,12,12,0,0,0,3.2-5.79c1.57-7.58-5.29-12-11.33-14.93q-15.19-7.48-30.95-13.77c-4.71-1.87-9.87-4-11.62-9.08a9.7,9.7,0,0,1,.58-7.61c2.24-4.29,6.76-5.6,11.07-6.39a76.2,76.2,0,0,1,44.87,5.54c1.94-3.78,3.92-7.66,4.53-11.87a6.51,6.51,0,0,0-.32-3.79c-.91-1.9-3.12-2.74-5.14-3.33-9.57-2.8-19.34-3.65-29.26-3.65-9.18,0-18.6.8-27.14,4.4a18.88,18.88,0,0,0-4.09,2c-4.73,2.62-9.2,6.71-10,12.07a14.7,14.7,0,0,0,3.14,10.68A33.93,33.93,0,0,0,409,61.7c12,8,25.59,13.37,39.28,18,2.79.94,5.72,1.93,7.4,4.57a4.8,4.8,0,0,1,.52,4.33c-1.25,3.08-5,3.15-8,2.72-7.75-1.1-15.27-3.4-23-4.92s-15.72-2.25-23.27-.2-14.58,7.29-17.12,14.69c-2.32,6.74-.68,14.24,2.23,20.74a56.63,56.63,0,0,0,33.1,30.1c12.06,4.09,25.09,3.94,37.82,3.54,2-.06,4.2-.19,5.73-1.51a8.79,8.79,0,0,0,2.28-4.41q2.22-7.76,3.72-15.67C454.39,133.37,438.86,134.83,423.71,133.38Z"/><path class="cls-2" d="M154.15,39.37c-2.3-4.32-5.21-8.54-9.51-10.92-5.57-3.09-12-2-16.65,2.25a17.32,17.32,0,0,0-1.67,1.75c-3.52,4.27-5.19,9.73-6.77,15l-32,107.42h27.82q-.12-23.93-.83-47.85l41.53-.16q7.16,24.24,12.36,49l22,0c-11.84-37.9-17.5-78-34.82-113.71C155.11,41.23,154.65,40.3,154.15,39.37Zm-33.93,20c1.42-5.4,4.23-15.37,5.7-17.56,4.2-6.21,9-4.25,11.29,3C143.35,64,149,83.4,155.24,104H113.45c2-19,1.14-9.16,2-19C115.64,81.58,118.82,64.66,120.22,59.34Z"/><path class="cls-2" d="M534.06,95.5l-.12-.17c-1.76-2.69-3.54-6.27-1.69-8.9a8,8,0,0,1,3.06-2.25C541.5,81.08,548,78.5,553.89,75s11.45-8.19,14.63-14.33a26.43,26.43,0,0,0,.43-23,26.15,26.15,0,0,0-7.45-9.31,26.6,26.6,0,0,0-5.13-3.18A26.89,26.89,0,0,0,553.76,24a15.26,15.26,0,0,0-4.5-.69c-4.86.11-9.73,0-14.59,0l-16.12,0-16.12,0-13.62,0q0,64.55.05,129.08H507.3q.12-61.8.23-123.59h-.08V26h21v.3h1.11c7.35.19,15.13,1.9,20.28,7.14,5.7,5.79,7,15,4.73,22.75S547,70.55,541,76,528.2,86,522,91.23c-2.24,1.88-4.55,4.07-5,7s.94,5.52,2.28,8q4.88,9.08,9.76,18.13c4.56,8.47,9.29,17.14,16.59,23.4,2,1.71,4,4.17,6.62,4.41,20.25,1.83.25-.17,20.11,1.54Z"/><path class="cls-2" d="M667,124.3c-12.05,8.44-27.67,13.39-41.64,8.77-13.1-4.34-22.51-16.47-26.73-29.61s-4-27.28-2.94-41a43.86,43.86,0,0,1,1.89-11.22,25.56,25.56,0,0,1,17.15-15.74c8.19-2.28,17.07-.54,24.77,3s14.43,9,21.07,14.25l11.64-14.51c.15-.19-4.54-3.84-5-4.16a48,48,0,0,0-5.61-3.52,49.64,49.64,0,0,0-18.89-5.76,34.26,34.26,0,0,0-5.9.21,52.23,52.23,0,0,0-11.68,2.32,59.11,59.11,0,0,0-20.68,11.79,61.34,61.34,0,0,0-14.61,18.82c-9.39,18.87-9,41.81-1.1,61.35,4.33,10.71,11,20.76,20.52,27.31a49.45,49.45,0,0,0,29.31,8.32,54.77,54.77,0,0,0,37.25-16.4Z"/><path class="cls-2" d="M717.19,134.29A94.46,94.46,0,0,1,703,131.9c-5.53-1.39-11.1-3.51-15.11-7.57s-6.08-10.46-3.73-15.66c1.81-4,5.92-6.64,10.22-7.55s8.78-.29,13,.79c10.16,2.58,20,7.8,30.41,7.21a28.1,28.1,0,0,0,18.59-8.5,12.06,12.06,0,0,0,3.2-5.79c1.57-7.59-5.29-12-11.33-14.93q-15.19-7.5-31-13.77c-4.71-1.88-9.87-4-11.62-9.08a9.72,9.72,0,0,1,.58-7.62c2.24-4.28,6.76-5.6,11.07-6.38a76.19,76.19,0,0,1,44.87,5.54c1.94-3.79,3.92-7.66,4.53-11.88a6.48,6.48,0,0,0-.32-3.78c-.91-1.9-3.12-2.74-5.14-3.33C751.71,26.8,741.94,25.94,732,26c-9.18,0-18.6.79-27.14,4.4a18.85,18.85,0,0,0-4.09,2c-4.73,2.63-9.2,6.72-10,12.07A14.7,14.7,0,0,0,694,55.08a33.93,33.93,0,0,0,8.53,7.52c12,8.05,25.59,13.38,39.28,18,2.79.94,5.72,1.92,7.4,4.56a4.83,4.83,0,0,1,.52,4.34c-1.25,3.07-5,3.15-8.05,2.72-7.75-1.11-15.27-3.41-22.95-4.93S703,85,695.42,87.09s-14.58,7.28-17.12,14.69c-2.31,6.73-.68,14.23,2.23,20.73a56.67,56.67,0,0,0,33.1,30.11c12.06,4.08,25.09,3.94,37.82,3.54,2-.07,4.2-.2,5.73-1.51a8.78,8.78,0,0,0,2.28-4.42q2.22-7.74,3.72-15.67C747.87,134.27,732.34,135.73,717.19,134.29Z"/><path class="cls-2" d="M128.45,175.4v23.3A65,65,0,0,0,83,176.12c0,58.06-.09,110.06-.09,165.27L59.3,342.44c0-54.65.46-107,.46-166.32a68.52,68.52,0,0,0-28.39,7.74C22.75,188.4,3.74,193.94,0,198V175.4Z"/><path class="cls-2" d="M192.72,313.65a122.17,122.17,0,0,1-18.47-3.1c-7.18-1.81-14.42-4.55-19.63-9.83s-7.89-13.58-4.84-20.34c2.35-5.2,7.69-8.62,13.27-9.8s11.41-.37,16.94,1c13.18,3.35,25.9,10.12,39.48,9.36a36.46,36.46,0,0,0,24.36-11.28,15.26,15.26,0,0,0,3.94-7.28c2-9.85-6.87-15.52-14.72-19.39q-19.73-9.72-40.18-17.87c-6.05-2.42-12.67-5.15-15-11.59a12.59,12.59,0,0,1,.77-10.24c2.92-5.45,8.74-7.13,14.29-8.15a99,99,0,0,1,58.26,7.2c2.52-4.92,5.09-10,5.89-15.42a8.57,8.57,0,0,0-.42-4.92c-1.18-2.46-4-3.55-6.67-4.32-12.43-3.63-25.12-4.75-38-4.74-11.92,0-24.14,1-35.24,5.71a24.77,24.77,0,0,0-5.3,2.58c-6.15,3.41-11.95,8.72-12.95,15.67-.71,4.9,1.12,9.91,4.08,13.87s7,7,11.07,9.77c15.58,10.45,33.23,17.36,51,23.35,3.54,1.19,7.25,2.44,9.45,5.69a6.31,6.31,0,0,1,.76,6c-1.69,3.82-6.5,3.91-10.38,3.35-10.06-1.43-19.83-4.41-29.8-6.39s-20.41-2.91-30.22-.25-18.93,9.46-22.23,19.08c-3,8.74-.88,18.48,2.9,26.92a73.57,73.57,0,0,0,43,39.09c15.66,5.31,32.58,5.12,49.11,4.6,2.62-.09,5.45-.26,7.43-2,1.66-1.43,2.37-3.64,3-5.74q2.88-10.05,4.83-20.35C232.55,313.63,212.39,315.53,192.72,313.65Z"/><path class="cls-2" d="M893.45,0a19.54,19.54,0,0,0-3,.19,17.62,17.62,0,0,0-5.66,1.91,19.5,19.5,0,0,0-4.73,3.49,19.26,19.26,0,0,0-3.49,4.72,18.27,18.27,0,0,0-1.26,3,19.42,19.42,0,0,0,4.18,18.55A8.82,8.82,0,0,0,882.14,34c1,.49,2.17.66,3.18,1.16a5.46,5.46,0,0,1-4.22,10c3.71,1.4,7.88.68,11.66-.54a29.74,29.74,0,0,0,12.73-7.46,26.07,26.07,0,0,0,6.33-12.95A22.52,22.52,0,0,0,911,11.48a18.37,18.37,0,0,0-7.37-8.55A19.36,19.36,0,0,0,897.3.43,20,20,0,0,0,893.45,0Z"/></g></g></g></svg>