<svg xmlns="http://www.w3.org/2000/svg" viewBox="0 0 200.52 88.23"><defs><style>.cls-1{fill:#fff;}</style></defs><g id="Calque_2" data-name="Calque 2"><g id="Calque_1-2" data-name="Calque 1"><path class="cls-1" d="M162.08,58.05H182V29.7h10.31V57.16l8.2-1.55v3.7h-8.05V74.17H182.15V59.6H150.82V71.17c0,4-.23,8,.06,12C151.16,87,148.34,89,144,88a2.66,2.66,0,0,1-.65-4.94,42.47,42.47,0,0,1,6.23-2,106.64,106.64,0,0,0-.07-11.39c-.69-6.75,1.52-12.28,4.89-18.1,6.23-10.75,11.46-22.07,17-33.2a20.46,20.46,0,0,0,1.46-4.85c.77-3.6,1.46-7.24-2.88-9.62,3.45,0,6.92-.19,10.35.06,2.48.18,3.13,2.46,3.18,4.43a28.27,28.27,0,0,1-.77,7.39C179.37,29.54,172.43,41.64,165,53.51,164.15,54.92,163.22,56.3,162.08,58.05Z"/><path class="cls-1" d="M57.22,35.54c7.77-.62,7.91-.43,9,7.64.77,6,1.73,12,2.77,18a16.18,16.18,0,0,0,1.86,4.68c.3.56,1.53,1.22,1.87,1a2.61,2.61,0,0,0,1.22-2c-.53-4.51-1.3-9-1.89-13.51-.42-3.19-1.17-6.44-.85-9.57a9.27,9.27,0,0,1,3.25-5.88c3-2.27,6.62-.53,7.36,3.45,1.19,6.46,2,13,2.94,19.51.51,3.63.94,7.27,1.43,11.1H80.92q-1.35-9.75-2.71-19.49c-.46-3.36-.73-6.75-1.42-10.06-.24-1.1-1.53-2-2.34-2.94-.77,1.11-2.25,2.28-2.18,3.33.43,5.91,1.21,11.8,1.93,17.69.22,1.87,1,3.75.84,5.54s-.91,4.12-2.21,5A4.18,4.18,0,0,1,67,67.76a26.23,26.23,0,0,1-3.66-8.35C62.15,53.76,61.64,48,60.79,42.26c-.23-1.58-.67-3.13-1-4.69l-1,.12c-.53,6.67-1.33,13.34-1.5,20-.14,5.6,1.59,8.86,5.35,12.28H52.45c1.1-5.94,2.3-11.76,3.24-17.63C56.58,46.82,58.5,41.3,57.22,35.54Z"/><path class="cls-1" d="M47.16,52.5a37.81,37.81,0,0,0-4.55-2.06c-3.49-1.08-7.07-1.88-10.55-3-2.55-.8-4.38-2.43-4.43-5.37s1.73-4.65,4.19-5.59c6.48-2.48,12.84-1.65,19.41.73L50,41.62c-4.73-.5-9.14-1.11-13.56-1.36-2-.11-4.27.35-4.71,2.81-.47,2.62,1.58,3.71,3.64,4.37,3.3,1.06,6.69,1.82,10,2.88s4.65,2.94,4.08,5.29-2.84,3.62-6,3.06c-2.33-.41-4.56-1.42-6.87-2a19.89,19.89,0,0,0-5.25-.87c-1.13,0-3,.75-3.19,1.47a6.67,6.67,0,0,0,.76,4.4A5.82,5.82,0,0,0,32,63.76c6,1.89,12.08,2.64,18.11,0-.28,5.09-1.53,6.75-6.45,6.6a35.51,35.51,0,0,1-11-2.19c-3.86-1.42-5.6-5-6-9a6.63,6.63,0,0,1,6.83-7.44c2.9-.06,5.82,1,8.74,1.44,1.53.26,3.07.39,4.61.58Z"/><path class="cls-1" d="M136.16,42.55c-5.25-2.16-10.48-3.1-15.93-1.84a5.89,5.89,0,0,0-2.76,1c-1.09,1.14-2.6,2.73-2.44,3.92s2.11,2.57,3.49,2.87c3.39.75,7,.69,10.38,1.35,5.75,1.11,8.94,4.47,9.18,9.14.25,4.87-3,9-8.36,10.71a17.88,17.88,0,0,1-11.47-.36c-5.21-1.75-5.49-2.51-2.66-7.61,4.35,2.77,9.07,4.45,14.33,3.69,1.47-.21,3.16-.31,4.27-1.11,1.3-.95,2.8-2.59,2.85-4,0-1.09-1.82-2.84-3.16-3.25-3.22-1-6.75-1-9.94-2.06-2.92-1-6.19-2.26-8.16-4.45-3.87-4.32-2-11.21,3.5-13.77,6-2.81,12-2.1,18.34.37C137.11,39.06,136.66,40.74,136.16,42.55Z"/><path class="cls-1" d="M94.39,70.05H89.23V35.83c5.07,0,10.25-.49,15.29.15,4.14.53,6.76,5.13,6.74,9.8a9.84,9.84,0,0,1-7.34,9.78,83.28,83.28,0,0,1-9.53,1.21Zm0-15.09c4.63.8,8.43.12,10.57-4.11A10.37,10.37,0,0,0,104,39.29c-2.42-3.22-5.82-3.77-9.64-3.07Z"/><path class="cls-1" d="M105.18,4.81V31.1h-3.71V4.32c4.61,0,9.19-.2,13.72.13,1.24.09,2.82,1.56,3.42,2.8a4.79,4.79,0,0,1-1.42,6,20.11,20.11,0,0,1-5.11,3c-1.72.69-1.91,1.54-1,2.91,2.62,4,5.27,8,7.82,11.79-3.45,1-4.49.73-6.64-2.44-1.51-2.22-2.79-4.6-4.24-6.86s-.72-3.72,1.34-4.91c.77-.45,1.6-.8,2.33-1.29A6.82,6.82,0,0,0,115,8.52c-.28-2.31-1.49-3.66-3.9-3.7C109.22,4.78,107.34,4.81,105.18,4.81Z"/><path class="cls-1" d="M0,35.43H21.56c.88,0,1.76.08,2.66.13v4.69l-9.59-4.31V70h-5V36L0,40.22Z"/><path class="cls-1" d="M98.38,9.2c-4.44-.33-8-.75-11.52-.74-1,0-1.94,1.28-2.92,2,.79,1,1.4,2.34,2.41,2.77,2.52,1.06,5.27,1.57,7.84,2.53,1.87.69,3.9,1.66,3.18,4.26s-2.86,2.62-4.88,2.2c-2.33-.5-4.56-1.44-6.87-2-1.67-.44-3.64-.73-4.35,1.36s.4,3.65,2.49,4.4a22,22,0,0,0,14.06.37c-.1,3.85-.95,4.75-4.77,4.92-6.43.29-10.7-1.84-12.46-6.21s.48-8,5.13-8a29,29,0,0,1,5.56.91c1.31.24,2.62.51,3.93.77l.37-1.07c-1.57-.63-3.12-1.33-4.72-1.87-2.42-.82-5-1.23-7.26-2.39a5.59,5.59,0,0,1-2.7-3.78A4.92,4.92,0,0,1,83.28,5.8c4.6-2.44,9.51-1.91,14.22-.24C98.17,5.8,98.12,8.05,98.38,9.2Z"/><path class="cls-1" d="M160.73,5.9l-.85,3.32c-3.72-.31-7.23-.82-10.75-.78a4,4,0,0,0-3.1,2.31c-.39,2,1.39,2.21,3.1,2.62a39.2,39.2,0,0,1,8.4,3.09c1,.48,2,2.4,1.74,3.25a4.56,4.56,0,0,1-3.11,2.48c-1.46.26-3.11-.39-4.64-.78s-2.85-1.25-4.28-1.27-3.59.37-4.05,1.28c-1,1.94.29,3.63,2.33,4.41a21.56,21.56,0,0,0,12.93.8,10.64,10.64,0,0,0,1.4-.5c-.32,4.19-1.11,5-5.11,5.09-6.68.21-10.75-2-12.37-6.77-1.35-3.93.76-7.34,5-7.46,2.14-.07,4.29.69,6.44,1,1.15.19,2.32.3,3.48.45l.29-1.26-6.68-2.14c-1.78-.56-3.77-.79-5.28-1.76-1.25-.81-2.66-2.48-2.66-3.78a5.19,5.19,0,0,1,2.57-3.88C150.45,3.32,155.52,4,160.73,5.9Z"/><path class="cls-1" d="M39.89,31.08H35.77q-1.35-4.41-2.86-9.28H24.37v9.25H18.72c1.33-4.46,2.63-8.83,3.94-13.19,1.05-3.5,1.92-7.08,3.3-10.44a5.17,5.17,0,0,1,3.51-2.86c1-.08,2.71,1.66,3.13,2.92C35.16,15.22,37.45,23.05,39.89,31.08ZM28.41,7l-1.3.08c-2.6,4.21-2.52,9-2.89,13.84h8.5C31.24,16.1,29.83,11.54,28.41,7Z"/><path class="cls-1" d="M139.64,7.16,137.36,10c-1.44-1-2.69-2.22-4.2-2.72-6-2-8.93,0-9.71,7.12a14.85,14.85,0,0,0,.87,5.86c2.19,6.88,8.18,8.81,14.21,4.56l1.87,3a10.61,10.61,0,0,1-16.76-1.34c-3.57-5.47-3.11-14.06,1-19.08C127.83,3.53,135.8,3.31,139.64,7.16Z"/><path class="cls-1" d="M52,8.14V4.47H70.65V8.15L63.43,4.38V31h-4V4.34C56.63,5.78,54.4,6.92,52,8.14Z"/><path class="cls-1" d="M5,31.38c4.5-1.36,8.24-2.49,12-3.65v3.38H1.48V4.47H5Z"/><path class="cls-1" d="M73.6,4.39h3.57V31.1H73.6Z"/><path class="cls-1" d="M190.62,8.38c-1.05-.76-2.08-1.16-2.55-1.92-.81-1.3-1.94-3-1.67-4.2.22-1,2.37-2.39,3.49-2.25s2.49,1.83,2.87,3.11A4.38,4.38,0,0,1,190.62,8.38Z"/></g></g></svg>